<?xml version="1.0" standalone="no"?><svg xmlns="http://www.w3.org/2000/svg" viewBox="0 0 1440 320"><path fill="#ffffff" fill-opacity="1" d="M0,32L30,48C60,64,120,96,180,117.3C240,139,300,149,360,170.7C420,192,480,224,540,229.3C600,235,660,213,720,176C780,139,840,85,900,64C960,43,1020,53,1080,74.7C1140,96,1200,128,1260,133.3C1320,139,1380,117,1410,106.7L1440,96L1440,320L1410,320C1380,320,1320,320,1260,320C1200,320,1140,320,1080,320C1020,320,960,320,900,320C840,320,780,320,720,320C660,320,600,320,540,320C480,320,420,320,360,320C300,320,240,320,180,320C120,320,60,320,30,320L0,320Z"></path></svg>